<svg id="visual" viewBox="0 0 900 600" width="900" height="600" xmlns="http://www.w3.org/2000/svg" xmlns:xlink="http://www.w3.org/1999/xlink" version="1.1"><rect x="0" y="0" width="900" height="600" fill="#002233"></rect><path d="M0 492L21.5 475.3C43 458.7 86 425.3 128.8 428.7C171.7 432 214.3 472 257.2 484.8C300 497.7 343 483.3 385.8 457.7C428.7 432 471.3 395 514.2 404.2C557 413.3 600 468.7 642.8 494C685.7 519.3 728.3 514.7 771.2 491.5C814 468.3 857 426.7 878.5 405.8L900 385L900 601L878.5 601C857 601 814 601 771.2 601C728.3 601 685.7 601 642.8 601C600 601 557 601 514.2 601C471.3 601 428.7 601 385.8 601C343 601 300 601 257.2 601C214.3 601 171.7 601 128.8 601C86 601 43 601 21.5 601L0 601Z" fill="#0066FF" stroke-linecap="round" stroke-linejoin="miter"></path></svg>